<svg t="1756472246649" class="icon" viewBox="0 0 1024 1024" version="1.1" xmlns="http://www.w3.org/2000/svg" p-id="39195" width="200" height="200"><path d="M737.8 356.4H288.9c-80.5 76.9-139.1 186.9-139.1 298.9 0 204.6 162.6 271.7 363.1 271.7C713.4 927 876 859.9 876 655.3c0.1-115.2-138.2-298.9-138.2-298.9z m-69.2 345.9h-121V806h-69.2V702.3h-121v-51.9h121v-51.9H374.7v-51.9h34.6V442.9h69.2v103.7h69.2V442.9h69.2v103.7h34.6v51.9H547.6v51.9h121v51.9z m49.2-380.4c42.9-81.1 43.3-163.1-0.7-186.7-33.1-17.7-82.1 2.7-125.2 47-16.6-50.9-46.8-85.1-81.5-85.1-34.8 0-65.1 34.5-81.7 85.7-43-44-91.9-64.2-124.8-46.6-43.8 23.4-43.5 105-0.7 185.7h414.6z" p-id="39196" fill="#2c2c2c"></path></svg>