<svg t="1756448205372" class="icon" viewBox="0 0 1093 1024" version="1.1" xmlns="http://www.w3.org/2000/svg" p-id="28896" width="200" height="200"><path d="M1093.393067 1024h-1092.266667l102.4-750.933333h887.466667l102.4 750.933333z m-1013.76-68.266667h935.253333l-85.333333-614.4h-768l-81.92 614.4z" fill="#1296db" p-id="28897"></path><path d="M820.3264 341.333333h-546.133333V273.066667c0-150.186667 122.88-273.066667 273.066666-273.066667s273.066667 122.88 273.066667 273.066667v68.266666z m-477.866667-68.266666h409.6c0-112.64-92.16-204.8-204.8-204.8s-204.8 92.16-204.8 204.8z" fill="#1296db" p-id="28898"></path><path d="M369.7664 508.586667m-64.853333 0a64.853333 64.853333 0 1 0 129.706666 0 64.853333 64.853333 0 1 0-129.706666 0Z" fill="#1296db" p-id="28899"></path><path d="M745.233067 508.586667m-64.853334 0a64.853333 64.853333 0 1 0 129.706667 0 64.853333 64.853333 0 1 0-129.706667 0Z" fill="#1296db" p-id="28900"></path></svg>